<svg xmlns="http://www.w3.org/2000/svg" viewBox="0 0 2000 1200" width="2000" height="1200" aria-label="Stylized liver background with 9 slide anchors">

  <defs>
    <linearGradient id="liverGrad" x1="0" x2="1">
      <stop offset="0%" stop-color="#8a1f2a"/>
      <stop offset="40%" stop-color="#b22937"/>
      <stop offset="100%" stop-color="#4e0f14"/>
    </linearGradient>


    <filter id="softShadow" x="-50%" y="-50%" width="200%" height="200%">
      <feGaussianBlur in="SourceAlpha" stdDeviation="18" result="blur"/>
      <feOffset in="blur" dx="0" dy="26" result="offsetBlur"/>
      <feMerge>
        <feMergeNode in="offsetBlur"/>
        <feMergeNode in="SourceGraphic"/>
      </feMerge>
    </filter>

    <circle id="cell" r="12" fill="#ffd6d6" opacity="0.85"/>
  </defs>

  <rect x="0" y="0" width="100%" height="100%" fill="url(#gloss)" opacity="0.07"/>

  <g transform="translate(120,0) scale(0.9)" class="liverBase" filter="url(#softShadow)">
    <path d="M1600 450c0 0-60-140-240-210-180-70-560-120-860 40-300 160-370 560-150 790 220 230 720 180 1040-30 320-210 210-590 210-590z"
          fill="url(#liverGrad)" opacity="0.98"/>
    <path d="M1560 420c0 0-48-110-205-165-157-55-485-95-735 32-250 127-307 440-130 617 175 175 587 136 856-22 269-158 221-462 159-462z"
          fill="#000" opacity="0.06"/>
    <path d="M500 260c160-90 430-115 670-38 220 72 318 210 318 210s-94 22-210 120c-116 98-360 170-590 110-230-60-340-220-188-402z"
          fill="url(#gloss)" opacity="0.25"/>
    <path d="M520 500 C 580 460, 700 430, 760 420" stroke="rgba(255,255,255,0.06)" stroke-width="30" fill="none" stroke-linecap="round"/>
  </g>
</svg>
